<?xml version="1.0" encoding="utf-8"?>
<!-- Generator: Adobe Illustrator 26.5.0, SVG Export Plug-In . SVG Version: 6.00 Build 0)  -->
<svg version="1.1" id="Layer_1" xmlns="http://www.w3.org/2000/svg" xmlns:xlink="http://www.w3.org/1999/xlink" x="0px" y="0px"
	 viewBox="0 0 230 76.5" style="enable-background:new 0 0 230 76.5;" xml:space="preserve">
<style type="text/css">
	.st0{fill:#FFFFFF;}
</style>
<g>
	<path class="st0" d="M23.8,54.3c-4.4,0-6.5-3.4-5.4-7.2c2.3-8,16.8-20,26.7-20c7.2,0,6.7,6.5,2.4,12l-2.3,2.6
		C36.8,49.9,29,54.3,23.8,54.3 M59.2,0C46.6,0,32.6,7.7,23.9,15.1l0.7,1C38.2,6.6,57,0.4,62.2,9.6c2.7,4.9-1.9,14.8-8.5,22.6
		c1.6-3.5,0.5-10.1-8.6-10.1C29.9,22.2,0,42.3,0,62.9c0,8.3,5.7,13.6,15.2,13.6c25.2,0,59.5-41.4,59.5-62.2C74.6,7,70.4,0,59.2,0"/>
	<path class="st0" d="M91.7,54.3c-1.5,0-2.7-0.5-3.5-1.4c-0.8-1-1-2.4-0.7-3.8c0.8-3.1,4.2-5.6,7.7-5.6h8.1l-2.9,10.8H91.7z
		 M115.1,21.8c-2.3-2.9-6.1-4.1-8.8-4.1H91.5L89,27.1h13.9l1.3,0.1c0,0,1.3,0.1,2,1.1c0.6,0.8,0.7,2,0.2,3.5l-0.7,2.5h-8.8
		c-7.5,0-18.1,5.4-20.4,14.2c-1.2,4.4-0.1,8.1,2.1,10.9c2.2,2.8,6.5,4.3,11.1,4.3H98h0h10.3l4.8-18.1l3.6-13.3
		C118.1,27,116.6,23.7,115.1,21.8"/>
	<path class="st0" d="M216.5,17.7c-4,0-7.7,1.2-10.7,3.4c-3,2.3-4.7,5-5.7,8.7c-2.2,8.1,4.2,12,9.3,14.8c3.7,2,6.8,3.7,6.2,6.2
		c-0.5,1.8-1.3,3.4-5.8,3.4h-13.8l-2.5,9.3h15.3c4.1,0,7.9-0.9,10.9-3.2c3-2.3,4.8-5.6,5.8-9.6c1-3.8,0.3-7.4-2.1-10.1
		c-2-2.3-5-3.8-7.5-5.2c-3.3-1.8-6.4-3.5-5.9-5.5c0.3-1.2,1.6-2.9,4.2-2.9h13.4l2.5-9.3H216.5z"/>
	<path class="st0" d="M136.5,17.7c-4,0-7.7,1.2-10.7,3.4c-3,2.3-4.7,5-5.7,8.7c-2.2,8.1,4.2,12,9.3,14.8c3.7,2,6.8,3.7,6.2,6.2
		c-0.5,1.8-1.3,3.4-5.8,3.4h-13.8l-2.5,9.3h15.3c4.1,0,7.9-0.9,10.9-3.2c3-2.3,4.8-5.6,5.8-9.6c1-3.8,0.3-7.4-2.1-10.1
		c-2-2.3-5-3.8-7.5-5.2c-3.3-1.8-6.4-3.5-5.9-5.5c0.3-1.2,1.6-2.9,4.2-2.9h13.4l2.5-9.3H136.5z"/>
	<polygon class="st0" points="157.3,17.7 145.3,63.6 155.4,63.6 167.4,17.7 	"/>
	<path class="st0" d="M194.3,17.7c-17.8,0.1-27.1,11.9-30.1,23c-3.5,13.1,3.5,23,16.2,23h8.5l2.5-9.3h-8.5c-4.8,0-11.3-3.8-8.7-13.6
		c2.1-7.8,9.7-13.6,18.1-13.6h5.4l2.5-9.3L194.3,17.7L194.3,17.7z"/>
</g>
</svg>
